<svg width="24" height="24" viewBox="0 0 24 24" fill="none" xmlns="http://www.w3.org/2000/svg">
<path d="M3 5C2.71667 5 2.47917 4.90417 2.2875 4.7125C2.09583 4.52083 2 4.28333 2 4C2 3.71667 2.09583 3.47917 2.2875 3.2875C2.47917 3.09583 2.71667 3 3 3H13C13.2833 3 13.5208 3.09583 13.7125 3.2875C13.9042 3.47917 14 3.71667 14 4C14 4.28333 13.9042 4.52083 13.7125 4.7125C13.5208 4.90417 13.2833 5 13 5H3ZM8 17.5C8.41667 17.5 8.77083 17.3542 9.0625 17.0625C9.35417 16.7708 9.5 16.4167 9.5 16V15H10.5C10.9167 15 11.2708 14.8542 11.5625 14.5625C11.8542 14.2708 12 13.9167 12 13.5C12 13.0833 11.8542 12.7292 11.5625 12.4375C11.2708 12.1458 10.9167 12 10.5 12H9.5V11C9.5 10.5833 9.35417 10.2292 9.0625 9.9375C8.77083 9.64583 8.41667 9.5 8 9.5C7.58333 9.5 7.22917 9.64583 6.9375 9.9375C6.64583 10.2292 6.5 10.5833 6.5 11V12H5.5C5.08333 12 4.72917 12.1458 4.4375 12.4375C4.14583 12.7292 4 13.0833 4 13.5C4 13.9167 4.14583 14.2708 4.4375 14.5625C4.72917 14.8542 5.08333 15 5.5 15H6.5V16C6.5 16.4167 6.64583 16.7708 6.9375 17.0625C7.22917 17.3542 7.58333 17.5 8 17.5ZM3 21C2.45 21 1.97917 20.8042 1.5875 20.4125C1.19583 20.0208 1 19.55 1 19V8C1 7.45 1.19583 6.97917 1.5875 6.5875C1.97917 6.19583 2.45 6 3 6H13C13.55 6 14.0208 6.19583 14.4125 6.5875C14.8042 6.97917 15 7.45 15 8V19C15 19.55 14.8042 20.0208 14.4125 20.4125C14.0208 20.8042 13.55 21 13 21H3ZM3 19H13V8H3V19ZM18.775 14.8C18.575 14.6 18.475 14.3625 18.475 14.0875C18.475 13.8125 18.575 13.575 18.775 13.375L19.15 13H17C16.7167 13 16.4792 12.9042 16.2875 12.7125C16.0958 12.5208 16 12.2833 16 12C16 11.7167 16.0958 11.4792 16.2875 11.2875C16.4792 11.0958 16.7167 11 17 11H19.15L18.775 10.625C18.575 10.425 18.4792 10.1875 18.4875 9.9125C18.4958 9.6375 18.6 9.4 18.8 9.2C19 9 19.2375 8.9 19.5125 8.9C19.7875 8.9 20.025 9 20.225 9.2L22.3 11.3C22.5 11.5 22.6 11.7333 22.6 12C22.6 12.2667 22.5 12.5 22.3 12.7L20.2 14.8C20 15 19.7625 15.1 19.4875 15.1C19.2125 15.1 18.975 15 18.775 14.8Z" fill="#204D9C"/>
</svg>
